<mxfile host="Electron" modified="2023-09-13T01:54:01.195Z" agent="Mozilla/5.0 (Windows NT 10.0; Win64; x64) AppleWebKit/537.36 (KHTML, like Gecko) draw.io/21.6.8 Chrome/114.0.5735.289 Electron/25.5.0 Safari/537.36" etag="a_YUKMmSrsXPEdM3yvsX" version="21.6.8" type="device">
  <diagram name="Page-1" id="wLwSyoKLnbe2JT4sdMwb">
    <mxGraphModel dx="1434" dy="956" grid="1" gridSize="10" guides="1" tooltips="1" connect="1" arrows="1" fold="1" page="1" pageScale="1" pageWidth="850" pageHeight="1100" math="0" shadow="0">
      <root>
        <mxCell id="0" />
        <mxCell id="1" parent="0" />
        <mxCell id="oXLlJpICOgz04VFmjEHe-25" style="edgeStyle=orthogonalEdgeStyle;rounded=0;orthogonalLoop=1;jettySize=auto;html=1;exitX=0.5;exitY=1;exitDx=0;exitDy=0;" parent="1" source="oXLlJpICOgz04VFmjEHe-26" target="oXLlJpICOgz04VFmjEHe-41" edge="1">
          <mxGeometry relative="1" as="geometry" />
        </mxCell>
        <mxCell id="oXLlJpICOgz04VFmjEHe-26" value="Select podcast to edit" style="ellipse;whiteSpace=wrap;html=1;" parent="1" vertex="1">
          <mxGeometry x="265" y="280" width="130" height="70" as="geometry" />
        </mxCell>
        <mxCell id="oXLlJpICOgz04VFmjEHe-42" style="edgeStyle=orthogonalEdgeStyle;rounded=0;orthogonalLoop=1;jettySize=auto;html=1;exitX=0.5;exitY=1;exitDx=0;exitDy=0;entryX=0.5;entryY=0;entryDx=0;entryDy=0;" parent="1" source="oXLlJpICOgz04VFmjEHe-28" target="oXLlJpICOgz04VFmjEHe-31" edge="1">
          <mxGeometry relative="1" as="geometry" />
        </mxCell>
        <mxCell id="oXLlJpICOgz04VFmjEHe-28" value="Go to outside editing software" style="ellipse;whiteSpace=wrap;html=1;" parent="1" vertex="1">
          <mxGeometry x="270" y="530" width="120" height="80" as="geometry" />
        </mxCell>
        <mxCell id="oXLlJpICOgz04VFmjEHe-29" value="" style="endArrow=classic;html=1;rounded=0;exitX=0.5;exitY=1;exitDx=0;exitDy=0;entryX=0.5;entryY=0;entryDx=0;entryDy=0;" parent="1" target="oXLlJpICOgz04VFmjEHe-26" edge="1">
          <mxGeometry width="50" height="50" relative="1" as="geometry">
            <mxPoint x="330" y="220" as="sourcePoint" />
            <mxPoint x="460" y="380" as="targetPoint" />
          </mxGeometry>
        </mxCell>
        <mxCell id="oXLlJpICOgz04VFmjEHe-44" style="edgeStyle=orthogonalEdgeStyle;rounded=0;orthogonalLoop=1;jettySize=auto;html=1;exitX=0.5;exitY=1;exitDx=0;exitDy=0;entryX=0.5;entryY=0;entryDx=0;entryDy=0;" parent="1" source="oXLlJpICOgz04VFmjEHe-31" target="oXLlJpICOgz04VFmjEHe-39" edge="1">
          <mxGeometry relative="1" as="geometry" />
        </mxCell>
        <mxCell id="oXLlJpICOgz04VFmjEHe-31" value="&lt;br&gt;save edited podcast to user account" style="ellipse;whiteSpace=wrap;html=1;" parent="1" vertex="1">
          <mxGeometry x="260" y="665" width="140" height="100" as="geometry" />
        </mxCell>
        <mxCell id="oXLlJpICOgz04VFmjEHe-37" value="Edit Podcast" style="text;html=15;strokeColor=none;fillColor=none;align=center;verticalAlign=middle;whiteSpace=wrap;rounded=0;fontStyle=1" parent="1" vertex="1">
          <mxGeometry x="271" y="144" width="120" height="30" as="geometry" />
        </mxCell>
        <mxCell id="oXLlJpICOgz04VFmjEHe-38" value="" style="ellipse;whiteSpace=wrap;html=1;aspect=fixed;" parent="1" vertex="1">
          <mxGeometry x="310" y="180" width="40" height="40" as="geometry" />
        </mxCell>
        <mxCell id="oXLlJpICOgz04VFmjEHe-39" value="" style="ellipse;whiteSpace=wrap;html=1;aspect=fixed;fillColor=#0f0f0f;" parent="1" vertex="1">
          <mxGeometry x="310" y="825" width="40" height="40" as="geometry" />
        </mxCell>
        <mxCell id="oXLlJpICOgz04VFmjEHe-40" style="edgeStyle=orthogonalEdgeStyle;rounded=0;orthogonalLoop=1;jettySize=auto;html=1;exitX=0.5;exitY=1;exitDx=0;exitDy=0;entryX=0.5;entryY=0;entryDx=0;entryDy=0;" parent="1" source="oXLlJpICOgz04VFmjEHe-41" target="oXLlJpICOgz04VFmjEHe-28" edge="1">
          <mxGeometry relative="1" as="geometry" />
        </mxCell>
        <mxCell id="oXLlJpICOgz04VFmjEHe-41" value="Press edit Icon" style="ellipse;whiteSpace=wrap;html=1;" parent="1" vertex="1">
          <mxGeometry x="270" y="396" width="120" height="80" as="geometry" />
        </mxCell>
        <mxCell id="oXLlJpICOgz04VFmjEHe-45" value="&lt;h1&gt;Description&lt;/h1&gt;&lt;p style=&quot;font-size: 16px;&quot;&gt;&lt;b&gt;Use case name: &lt;/b&gt;Edit podcast&lt;/p&gt;&lt;p style=&quot;font-size: 16px;&quot;&gt;&lt;b&gt;Actor:&lt;/b&gt; podcaster or manager&lt;/p&gt;&lt;p style=&quot;font-size: 16px;&quot;&gt;&lt;b&gt;Precondition:&lt;/b&gt; The podcaster has logged into their account or manager has logged into their account and selected a podcaster&lt;/p&gt;&lt;p style=&quot;font-size: 16px;&quot;&gt;&lt;b&gt;Main sequence:&lt;/b&gt;&lt;/p&gt;&lt;p style=&quot;font-size: 16px;&quot;&gt;1. The podcaster/manager selects the podcast they would like to edit.&amp;nbsp;&lt;/p&gt;&lt;p style=&quot;font-size: 16px;&quot;&gt;2. The podcaster/manager then presses the edit button and is taken to an outside editing platform with the podcast file.&amp;nbsp;&lt;/p&gt;&lt;p style=&quot;font-size: 16px;&quot;&gt;3.The changes made to the file are brought back to the application and saved to the users files&lt;/p&gt;&lt;p style=&quot;font-size: 16px;&quot;&gt;&lt;b&gt;Postcondition:&lt;/b&gt; A new version of the file is saved.&lt;/p&gt;" style="text;html=1;strokeColor=none;fillColor=none;spacing=5;spacingTop=-20;whiteSpace=wrap;overflow=hidden;rounded=0;" parent="1" vertex="1">
          <mxGeometry x="410" y="144" width="310" height="526" as="geometry" />
        </mxCell>
        <mxCell id="zdn1UHq1V901Ig_i-rQ5-1" value="BEANSTALK&lt;br&gt;Cal Crosby, Ashton Stroud, Sarah Hardin, Jon Story" style="text;html=1;align=center;verticalAlign=middle;resizable=0;points=[];autosize=1;strokeColor=none;fillColor=none;" vertex="1" parent="1">
          <mxGeometry x="181" y="80" width="300" height="40" as="geometry" />
        </mxCell>
      </root>
    </mxGraphModel>
  </diagram>
</mxfile>
